<svg t="1616052086206" class="icon" viewBox="0 0 1209 1024" version="1.1" xmlns="http://www.w3.org/2000/svg" p-id="4421" width="200" height="200"><path d="M168.294099 866.145196h61.370405c18.347853 0 31.634229-15.18443 31.634229-39.226444s-12.337349-39.226444-31.634229-39.226444H168.294099c-18.347853 0-31.634229 15.18443-31.634229 39.226444s13.602719 39.859129 31.634229 39.226444z" fill="#3295FC" p-id="4422"></path><path d="M671.594686 945.230769H61.370405v-236.307692h534.618474a341.649676 341.649676 0 0 1 13.602718-79.085573H61.370405v-236.307692h796.866234v3.163422a342.28236 342.28236 0 0 1 61.370405-8.541241V78.452888C919.607044 31.634229 895.248687 0 858.236639 0H61.370405C24.991041 0 0 31.634229 0 78.452888v866.777881c0 47.135002 24.358357 78.452888 61.370405 78.452889h701.647204a343.864072 343.864072 0 0 1-91.422923-78.452889zM61.370405 78.452888h796.866234V316.342292H61.370405z" fill="#3295FC" p-id="4423"></path><path d="M229.664504 472.615385H168.294099c-18.347853 0-31.634229 16.133457-31.634229 39.226444s12.337349 39.226444 31.634229 39.226444h61.370405c18.347853 0 31.634229-15.18443 31.634229-39.226444s-13.286376-39.226444-31.634229-39.226444zM229.664504 158.171146H168.294099c-18.347853 0-31.634229 16.133457-31.634229 39.226444s12.337349 39.226444 31.634229 39.226445h61.370405c18.347853 0 31.634229-15.18443 31.634229-39.226445S248.012357 158.171146 229.664504 158.171146z" fill="#3295FC" p-id="4424"></path><path d="M1175.211616 807.30553a31.634229 31.634229 0 0 1-31.63423-31.634229v-90.473896a31.634229 31.634229 0 1 1 65.482855 0v89.208526a31.634229 31.634229 0 0 1-31.634229 31.63423z m-158.171146 183.478529a31.634229 31.634229 0 0 1-16.4498-61.370404L1078.410874 885.758418a31.634229 31.634229 0 0 1 35.113995 55.359901h-2.530739l-76.871177 44.604264a31.634229 31.634229 0 0 1-16.449799 5.061476z m-160.701885 0a31.634229 31.634229 0 0 1-16.449799-4.112449l-76.871177-44.920606a31.634229 31.634229 0 1 1 31.634229-58.206982h2.530738l76.871177 44.604263a31.634229 31.634229 0 0 1-16.449799 61.370405z m-158.171146-183.478529a31.634229 31.634229 0 0 1-31.634229-31.634229v-90.473896a31.634229 31.634229 0 1 1 65.482854 0v89.208526a31.634229 31.634229 0 0 1-31.634229 31.63423z m80.350942-228.082793a31.634229 31.634229 0 0 1-16.449799-61.370405L840.837813 474.513438a31.634229 31.634229 0 1 1 35.113994 55.359902h-2.530738l-76.871177 44.920605a31.634229 31.634229 0 0 1-16.449799 4.428792z m314.760581 0a31.634229 31.634229 0 0 1-16.449799-4.11245l-76.871177-44.604263a31.634229 31.634229 0 0 1 31.634229-56.62527l76.871177 44.604263a31.634229 31.634229 0 0 1-16.449799 61.370405z" fill="#F8AD4B" p-id="4425"></path><path d="M1017.356812 990.784059a31.634229 31.634229 0 0 1-29.419833-18.347853 56.308928 56.308928 0 0 0-101.229534 0 31.634229 31.634229 0 0 1-58.523324-28.787148 121.791783 121.791783 0 0 1 218.908866 0 31.634229 31.634229 0 0 1-29.419833 47.135001z m-80.0346-406.499845a121.159098 121.159098 0 0 1-109.454433-68.329935A31.634229 31.634229 0 1 1 885.758418 487.16713a56.308928 56.308928 0 0 0 101.229534 0 31.634229 31.634229 0 1 1 59.156008 28.787149 120.842756 120.842756 0 0 1-108.821748 68.329935z m231.562558 133.812789a121.791783 121.791783 0 0 1-100.280507-189.805375 31.634229 31.634229 0 0 1 54.410874 36.695706 56.308928 56.308928 0 0 0 49.033056 87.943157 31.634229 31.634229 0 1 1 2.530738 65.482855z m-389.10102 227.766451a31.634229 31.634229 0 0 1-27.205437-50.931109 56.308928 56.308928 0 0 0-50.614767-87.626815 31.634229 31.634229 0 1 1-4.112449-65.482855 121.791783 121.791783 0 0 1 108.505406 189.805376 31.634229 31.634229 0 0 1-26.572753 14.551745z m-73.707754-227.766451h-8.541242a31.634229 31.634229 0 1 1 4.11245-65.482854 56.308928 56.308928 0 0 0 50.614767-87.626815 31.634229 31.634229 0 0 1 51.247451-40.808156l2.847081 4.11245a121.791783 121.791783 0 0 1-100.913191 189.805375z m389.10102 227.766451a31.634229 31.634229 0 0 1-27.205437-14.551746 121.791783 121.791783 0 0 1 109.454433-189.805375 31.634229 31.634229 0 0 1-4.11245 65.166512 56.308928 56.308928 0 0 0-50.931109 87.943157 31.634229 31.634229 0 0 1-27.205437 51.247452z m-158.171146-109.138091A106.923695 106.923695 0 1 1 1043.929564 729.801668a107.240037 107.240037 0 0 1-106.923694 105.658326z m0-148.364535a41.44084 41.44084 0 1 0 41.44084 43.022552 41.44084 41.44084 0 0 0-41.44084-43.022552z" fill="#F8AD4B" p-id="4426"></path></svg>